<?xml version="1.0" standalone="no"?>
<!DOCTYPE svg PUBLIC "-//W3C//DTD SVG 20010904//EN"
 "http://www.w3.org/TR/2001/REC-SVG-20010904/DTD/svg10.dtd">
<svg version="1.0" xmlns="http://www.w3.org/2000/svg"
 width="1017.000000pt" height="474.000000pt" viewBox="0 0 1017.000000 474.000000"
 preserveAspectRatio="xMidYMid meet">

<g transform="translate(0.000000,474.000000) scale(0.100000,-0.100000)"
fill="#000000" stroke="none">
<path d="M2543 4733 c1402 -2 3692 -2 5090 0 1398 1 252 2 -2548 2 -2800 0
-3943 -1 -2542 -2z"/>
<path d="M7174 3519 l-190 -190 -90 17 c-87 16 -254 15 -311 -2 -17 -5 -23 -2
-23 10 0 15 -144 16 -1735 16 l-1735 0 0 -1002 0 -1003 -199 -117 c-109 -65
-206 -121 -215 -124 -12 -5 -16 -20 -16 -60 l0 -54 2161 0 2160 0 -3 53 -3 52
-207 124 -208 123 0 503 0 504 58 -30 c47 -25 71 -31 123 -31 67 0 155 28 180
59 11 12 42 -15 191 -164 l179 -178 44 50 c59 67 118 172 151 270 35 102 44
289 21 400 l-15 70 191 192 192 193 -124 124 c-139 140 -138 137 -52 181 153
77 348 71 512 -16 118 -63 227 -208 264 -354 22 -85 20 -253 -4 -347 -65 -253
-238 -450 -550 -627 -124 -70 -235 -183 -305 -312 -79 -144 -116 -307 -116
-510 l0 -129 -90 0 -90 0 0 35 0 35 -50 0 -50 0 0 -35 c0 -32 -3 -35 -37 -41
-82 -14 -123 -66 -123 -156 l0 -58 450 0 450 0 0 58 c0 68 -23 112 -72 139
-27 15 -63 18 -200 21 l-166 4 -7 76 c-13 155 29 380 96 515 71 141 188 269
308 337 273 154 419 297 517 503 55 117 69 185 69 332 0 116 -3 139 -28 212
-47 137 -152 265 -266 323 -60 30 -171 60 -247 67 -99 8 -202 -16 -289 -69
l-68 -40 -121 121 -121 121 -191 -191z m434 -82 l242 -242 -183 -183 -182
-182 -245 245 -245 245 180 180 c99 99 182 180 185 180 3 0 114 -109 248 -243z
m-1068 -94 c0 -5 -38 -24 -83 -43 l-82 -35 -1592 -2 -1593 -3 0 -910 0 -910
1633 2 1632 3 5 703 5 703 37 -38 38 -39 -23 -34 c-64 -95 -63 -228 3 -320 19
-27 20 -42 20 -539 l0 -511 -1720 0 -1720 0 0 990 0 990 1720 0 c946 0 1720
-3 1720 -7z m359 -14 l66 -11 257 -257 256 -256 13 -60 c18 -85 16 -256 -5
-340 -23 -95 -95 -239 -150 -300 l-45 -50 -535 535 c-295 294 -536 538 -536
542 0 14 129 103 199 136 41 20 106 43 145 53 83 20 239 24 335 8z m-604 -112
c-16 -12 -47 -37 -68 -56 -36 -32 -37 -35 -21 -52 17 -19 -22 -19 -1489 -19
l-1507 0 0 75 0 75 1558 0 1557 -1 -30 -22z m47 -244 l98 -98 0 -707 0 -708
-1615 0 -1615 0 0 805 0 805 1517 0 1518 0 97 -97z m578 -584 c0 -9 -77 -50
-108 -57 -35 -8 -99 -8 -135 0 -73 17 -174 115 -179 172 -2 36 -3 41 -12 54
-12 20 13 127 36 151 10 12 16 21 12 21 -3 0 -1 7 7 16 11 13 36 -8 196 -168
101 -100 183 -185 183 -189z m-179 -1154 l194 -115 -2109 0 c-1160 0 -2106 3
-2102 7 4 4 89 56 189 115 l182 108 1726 0 1727 0 193 -115z m219 -175 l0 -40
-2142 2 -2143 3 -3 38 -3 37 2145 0 2146 0 0 -40z"/>
<path d="M3297 3193 c-12 -12 -7 -50 8 -63 12 -10 21 -10 40 -2 25 12 30 27
19 56 -6 16 -54 22 -67 9z"/>
<path d="M3432 3188 c-33 -33 17 -88 53 -58 25 21 15 64 -15 68 -14 2 -31 -3
-38 -10z"/>
<path d="M3561 3186 c-16 -20 -5 -53 20 -61 27 -9 51 13 47 44 -2 20 -9 27
-29 29 -14 2 -31 -4 -38 -12z"/>
<path d="M4780 2730 c-26 -26 -26 -81 -2 -103 16 -15 49 -17 263 -17 134 0
249 4 255 8 15 10 34 47 34 67 0 9 -11 27 -25 40 l-24 25 -241 0 c-227 0 -241
-1 -260 -20z"/>
<path d="M3770 2605 l-135 -135 135 -135 c74 -74 139 -135 145 -135 5 0 -51
61 -125 135 l-135 135 130 130 c71 71 127 132 124 134 -3 3 -65 -55 -139 -129z"/>
<path d="M4168 2735 c-3 -6 -40 -123 -82 -262 -69 -228 -86 -297 -70 -281 9 9
164 532 161 542 -2 6 -5 6 -9 1z"/>
<path d="M4250 2735 c0 -5 57 -67 127 -137 l128 -128 -130 -130 c-71 -71 -127
-132 -124 -134 3 -3 65 55 139 129 l135 135 -138 138 c-75 75 -137 132 -137
127z"/>
<path d="M4780 2450 c-26 -26 -26 -81 -2 -103 17 -15 78 -17 665 -17 l646 0
15 22 c22 31 20 74 -4 98 -20 20 -33 20 -660 20 -627 0 -640 0 -660 -20z"/>
<path d="M4782 2174 c-16 -11 -22 -25 -22 -53 0 -74 -24 -71 533 -71 l496 0
21 22 c26 28 26 58 -1 92 l-20 26 -493 0 c-429 0 -494 -2 -514 -16z"/>
<path d="M4782 1894 c-16 -11 -22 -25 -22 -53 0 -73 -11 -71 423 -71 l386 0
20 26 c26 34 26 54 0 88 l-20 26 -383 0 c-329 0 -385 -2 -404 -16z"/>
<path d="M2455 2421 c-16 -4 -40 -13 -53 -20 -30 -16 -77 -90 -104 -163 -11
-32 -23 -58 -27 -58 -3 1 -18 19 -33 40 -15 22 -33 40 -39 40 -6 0 3 -18 20
-39 41 -51 71 -118 71 -159 l0 -33 -72 6 c-40 4 -91 11 -113 16 -22 5 -70 9
-106 9 -189 0 -339 -185 -339 -417 0 -141 94 -361 207 -482 87 -95 137 -124
211 -123 31 1 73 6 92 12 44 13 105 13 150 0 59 -17 141 -15 183 5 133 63 280
286 322 489 18 92 19 113 0 199 -30 141 -106 245 -213 295 -49 22 -63 24 -140
18 -48 -3 -103 -8 -123 -12 -36 -6 -36 -6 -43 36 -4 24 -5 44 -3 46 1 2 25 -4
52 -12 28 -8 83 -16 122 -17 85 -1 109 12 159 86 30 44 79 166 70 175 -3 2
-92 -42 -198 -98 -106 -57 -201 -107 -210 -112 -11 -5 -18 -5 -18 1 0 5 91 57
203 116 111 59 206 110 210 114 9 9 -98 36 -168 44 -22 3 -53 1 -70 -2z m-360
-386 c44 -8 106 -15 138 -15 43 0 57 -4 57 -15 0 -25 -41 -125 -51 -125 -29 0
-81 33 -99 62 -17 28 -20 30 -20 12 0 -30 59 -80 104 -88 64 -12 168 53 154
96 -3 8 -12 0 -21 -18 -12 -24 -75 -70 -83 -61 -1 1 8 32 19 68 l21 66 65 14
c87 17 177 15 225 -5 53 -24 133 -102 162 -158 30 -60 54 -157 54 -224 0 -176
-141 -450 -282 -548 -69 -47 -106 -52 -207 -31 -77 17 -84 17 -170 0 -105 -22
-144 -15 -213 38 -98 75 -218 272 -254 417 -22 87 -15 224 15 303 27 68 112
166 169 193 76 36 107 39 217 19z"/>
<path d="M2588 1875 c-3 -3 10 -21 27 -40 33 -35 65 -109 65 -152 0 -13 5 -23
11 -23 15 0 2 74 -23 126 -19 42 -70 99 -80 89z"/>
</g>
</svg>
